<svg width="114" height="33" viewBox="0 0 114 33" fill="none" xmlns="http://www.w3.org/2000/svg">
<path d="M9.47461 32.4C7.71461 32.4 6.08794 32.0533 4.59461 31.36C3.12794 30.6667 1.91461 29.6667 0.954609 28.36L3.83461 24.8C5.35461 26.9333 7.18128 28 9.31461 28C12.2746 28 13.7546 26.28 13.7546 22.84V4.36H3.75461V-1.90735e-06H18.9146V22.56C18.9146 25.84 18.1146 28.2933 16.5146 29.92C14.9146 31.5733 12.5679 32.4 9.47461 32.4ZM28.2472 28.126C27.2752 28.126 26.3992 27.916 25.6192 27.496C24.8392 27.076 24.2272 26.494 23.7832 25.75C23.3512 24.994 23.1352 24.142 23.1352 23.194C23.1352 22.246 23.3512 21.4 23.7832 20.656C24.2272 19.912 24.8392 19.33 25.6192 18.91C26.3992 18.49 27.2752 18.28 28.2472 18.28C29.2312 18.28 30.1132 18.49 30.8932 18.91C31.6732 19.33 32.2792 19.912 32.7112 20.656C33.1552 21.4 33.3772 22.246 33.3772 23.194C33.3772 24.142 33.1552 24.994 32.7112 25.75C32.2792 26.494 31.6732 27.076 30.8932 27.496C30.1132 27.916 29.2312 28.126 28.2472 28.126ZM28.2472 26.2C29.0752 26.2 29.7592 25.924 30.2992 25.372C30.8392 24.82 31.1092 24.094 31.1092 23.194C31.1092 22.294 30.8392 21.568 30.2992 21.016C29.7592 20.464 29.0752 20.188 28.2472 20.188C27.4192 20.188 26.7352 20.464 26.1952 21.016C25.6672 21.568 25.4032 22.294 25.4032 23.194C25.4032 24.094 25.6672 24.82 26.1952 25.372C26.7352 25.924 27.4192 26.2 28.2472 26.2ZM40.9827 18.28C42.1947 18.28 43.1667 18.634 43.8987 19.342C44.6307 20.05 44.9967 21.1 44.9967 22.492V28H42.7467V22.78C42.7467 21.94 42.5487 21.31 42.1527 20.89C41.7567 20.458 41.1927 20.242 40.4607 20.242C39.6327 20.242 38.9787 20.494 38.4987 20.998C38.0187 21.49 37.7787 22.204 37.7787 23.14V28H35.5287V14.644H37.7787V19.504C38.1507 19.108 38.6067 18.808 39.1467 18.604C39.6987 18.388 40.3107 18.28 40.9827 18.28ZM53.305 18.28C54.517 18.28 55.489 18.634 56.221 19.342C56.953 20.05 57.319 21.1 57.319 22.492V28H55.069V22.78C55.069 21.94 54.871 21.31 54.475 20.89C54.079 20.458 53.515 20.242 52.783 20.242C51.955 20.242 51.301 20.494 50.821 20.998C50.341 21.49 50.101 22.204 50.101 23.14V28H47.851V18.388H49.993V19.63C50.365 19.186 50.833 18.85 51.397 18.622C51.961 18.394 52.597 18.28 53.305 18.28ZM62.4573 -1.90735e-06H74.6973C77.6839 -1.90735e-06 80.3373 0.586665 82.6573 1.76C84.9773 2.90667 86.7773 4.54667 88.0573 6.68C89.3373 8.78667 89.9773 11.2267 89.9773 14C89.9773 16.7733 89.3373 19.2267 88.0573 21.36C86.7773 23.4667 84.9773 25.1067 82.6573 26.28C80.3373 27.4267 77.6839 28 74.6973 28H62.4573V-1.90735e-06ZM74.4573 23.6C76.5106 23.6 78.3106 23.2133 79.8573 22.44C81.4306 21.64 82.6306 20.52 83.4573 19.08C84.3106 17.6133 84.7373 15.92 84.7373 14C84.7373 12.08 84.3106 10.4 83.4573 8.96C82.6306 7.49333 81.4306 6.37333 79.8573 5.6C78.3106 4.8 76.5106 4.4 74.4573 4.4H67.6573V23.6H74.4573ZM97.5401 28.126C96.5681 28.126 95.6921 27.916 94.9121 27.496C94.1321 27.076 93.5201 26.494 93.0761 25.75C92.6441 24.994 92.4281 24.142 92.4281 23.194C92.4281 22.246 92.6441 21.4 93.0761 20.656C93.5201 19.912 94.1321 19.33 94.9121 18.91C95.6921 18.49 96.5681 18.28 97.5401 18.28C98.5241 18.28 99.4061 18.49 100.186 18.91C100.966 19.33 101.572 19.912 102.004 20.656C102.448 21.4 102.67 22.246 102.67 23.194C102.67 24.142 102.448 24.994 102.004 25.75C101.572 26.494 100.966 27.076 100.186 27.496C99.4061 27.916 98.5241 28.126 97.5401 28.126ZM97.5401 26.2C98.3681 26.2 99.0521 25.924 99.5921 25.372C100.132 24.82 100.402 24.094 100.402 23.194C100.402 22.294 100.132 21.568 99.5921 21.016C99.0521 20.464 98.3681 20.188 97.5401 20.188C96.7121 20.188 96.0281 20.464 95.4881 21.016C94.9601 21.568 94.6961 22.294 94.6961 23.194C94.6961 24.094 94.9601 24.82 95.4881 25.372C96.0281 25.924 96.7121 26.2 97.5401 26.2ZM109.394 26.218C110.438 26.218 111.308 25.87 112.004 25.174L113.192 26.56C112.772 27.076 112.232 27.466 111.572 27.73C110.912 27.994 110.168 28.126 109.34 28.126C108.284 28.126 107.354 27.916 106.55 27.496C105.746 27.076 105.122 26.494 104.678 25.75C104.246 24.994 104.03 24.142 104.03 23.194C104.03 22.258 104.24 21.418 104.66 20.674C105.092 19.918 105.68 19.33 106.424 18.91C107.18 18.49 108.032 18.28 108.98 18.28C109.88 18.28 110.696 18.478 111.428 18.874C112.172 19.258 112.76 19.816 113.192 20.548C113.624 21.268 113.84 22.114 113.84 23.086L106.478 24.526C106.706 25.078 107.072 25.498 107.576 25.786C108.08 26.074 108.686 26.218 109.394 26.218ZM108.98 20.08C108.152 20.08 107.48 20.35 106.964 20.89C106.46 21.43 106.208 22.156 106.208 23.068V23.086L111.644 22.042C111.488 21.454 111.17 20.98 110.69 20.62C110.222 20.26 109.652 20.08 108.98 20.08Z" fill="black"/>
</svg>
